<svg width="40" height="40" viewBox="0 0 40 40" fill="none" xmlns="http://www.w3.org/2000/svg">
<path d="M21.3417 26.325L26.325 21.3417C26.6764 20.9903 26.8521 20.5431 26.8521 20C26.8521 19.457 26.6764 19.0097 26.325 18.6583L21.2938 13.6271C20.9424 13.2757 20.5035 13.1077 19.977 13.123C19.4493 13.1396 19.0098 13.3236 18.6584 13.675C18.307 14.0264 18.1313 14.4736 18.1313 15.0167C18.1313 15.5597 18.307 16.007 18.6584 16.3583L20.3834 18.0833H14.2021C13.6591 18.0833 13.2118 18.2667 12.8605 18.6334C12.5091 19.0014 12.3334 19.457 12.3334 20C12.3334 20.5431 12.5174 20.998 12.8854 21.3647C13.2521 21.7327 13.707 21.9167 14.25 21.9167H20.3834L18.6105 23.6896C18.2591 24.041 18.091 24.4805 18.1064 25.0083C18.123 25.5347 18.307 25.9736 18.6584 26.325C19.0098 26.6764 19.457 26.8521 20 26.8521C20.5431 26.8521 20.9903 26.6764 21.3417 26.325ZM20 39.1667C17.3487 39.1667 14.857 38.6632 12.525 37.6563C10.1931 36.6507 8.16462 35.2854 6.43962 33.5604C4.71462 31.8354 3.34932 29.807 2.34371 27.475C1.33682 25.1431 0.833374 22.6514 0.833374 20C0.833374 17.3486 1.33682 14.857 2.34371 12.525C3.34932 10.1931 4.71462 8.16459 6.43962 6.43959C8.16462 4.71459 10.1931 3.34865 12.525 2.34176C14.857 1.33615 17.3487 0.833344 20 0.833344C22.6514 0.833344 25.1431 1.33615 27.475 2.34176C29.807 3.34865 31.8355 4.71459 33.5605 6.43959C35.2855 8.16459 36.6508 10.1931 37.6564 12.525C38.6633 14.857 39.1667 17.3486 39.1667 20C39.1667 22.6514 38.6633 25.1431 37.6564 27.475C36.6508 29.807 35.2855 31.8354 33.5605 33.5604C31.8355 35.2854 29.807 36.6507 27.475 37.6563C25.1431 38.6632 22.6514 39.1667 20 39.1667Z" fill="#FA793C"/>
</svg>
